<svg width="24" height="25" viewBox="0 0 24 25" fill="none" xmlns="http://www.w3.org/2000/svg">
<path fill-rule="evenodd" clip-rule="evenodd" d="M11.9726 20.8682C8.73355 20.8682 5.96655 20.3782 5.96655 18.4162C5.96655 16.4542 8.71555 14.7462 11.9726 14.7462C15.2116 14.7462 17.9786 16.4382 17.9786 18.3992C17.9786 20.3602 15.2296 20.8682 11.9726 20.8682Z" stroke="white" stroke-width="1.5" stroke-linecap="round" stroke-linejoin="round"/>
<path fill-rule="evenodd" clip-rule="evenodd" d="M11.9726 11.9488C14.0986 11.9488 15.8226 10.2258 15.8226 8.09976C15.8226 5.97376 14.0986 4.24976 11.9726 4.24976C9.84659 4.24976 8.12257 5.97376 8.12257 8.09976C8.11659 10.2178 9.82659 11.9418 11.9456 11.9488H11.9726Z" stroke="white" stroke-width="1.5" stroke-linecap="round" stroke-linejoin="round"/>
<path d="M18.3623 10.8917C19.5993 10.5607 20.5113 9.43266 20.5113 8.08966C20.5113 6.68866 19.5183 5.51866 18.1963 5.24866" stroke="white" stroke-width="1.5" stroke-linecap="round" stroke-linejoin="round"/>
<path d="M18.9434 14.0444C20.6974 14.0444 22.1954 15.2334 22.1954 16.2954C22.1954 16.9204 21.6784 17.6014 20.8944 17.7854" stroke="white" stroke-width="1.5" stroke-linecap="round" stroke-linejoin="round"/>
<path d="M5.58384 10.8917C4.34584 10.5607 3.43384 9.43266 3.43384 8.08966C3.43384 6.68866 4.42784 5.51866 5.74884 5.24866" stroke="white" stroke-width="1.5" stroke-linecap="round" stroke-linejoin="round"/>
<path d="M5.00176 14.0444C3.24776 14.0444 1.74976 15.2334 1.74976 16.2954C1.74976 16.9204 2.26676 17.6014 3.05176 17.7854" stroke="white" stroke-width="1.5" stroke-linecap="round" stroke-linejoin="round"/>
</svg>
