<svg width="138" height="155" viewBox="0 0 138 155" fill="none" xmlns="http://www.w3.org/2000/svg">
<path d="M92.9235 52.9388C92.9235 66.474 81.8634 77.4532 68.2117 77.4532C54.5601 77.4532 43.5 66.474 43.5 52.9388C43.5 39.4035 54.5601 28.4243 68.2117 28.4243C81.8634 28.4243 92.9235 39.4035 92.9235 52.9388Z" stroke="url(#paint0_linear_1_584)"/>
<path d="M18.8238 101.228V107.276C18.8238 107.939 18.9964 108.447 19.3418 108.802C19.6871 109.147 20.1724 109.32 20.7978 109.32C21.4324 109.32 21.9224 109.147 22.2678 108.802C22.6131 108.447 22.7858 107.939 22.7858 107.276V101.228H24.7598V107.262C24.7598 108.093 24.5778 108.797 24.2138 109.376C23.8591 109.945 23.3784 110.375 22.7718 110.664C22.1744 110.953 21.5071 111.098 20.7698 111.098C20.0418 111.098 19.3791 110.953 18.7818 110.664C18.1938 110.375 17.7271 109.945 17.3818 109.376C17.0364 108.797 16.8638 108.093 16.8638 107.262V101.228H18.8238ZM28.6135 104.364C28.8655 104.009 29.2108 103.715 29.6495 103.482C30.0975 103.239 30.6062 103.118 31.1755 103.118C31.8382 103.118 32.4355 103.281 32.9675 103.608C33.5088 103.935 33.9335 104.401 34.2415 105.008C34.5588 105.605 34.7175 106.301 34.7175 107.094C34.7175 107.887 34.5588 108.592 34.2415 109.208C33.9335 109.815 33.5088 110.286 32.9675 110.622C32.4355 110.958 31.8382 111.126 31.1755 111.126C30.6062 111.126 30.1022 111.009 29.6635 110.776C29.2342 110.543 28.8842 110.249 28.6135 109.894V114.696H26.6535V103.244H28.6135V104.364ZM32.7155 107.094C32.7155 106.627 32.6175 106.226 32.4215 105.89C32.2348 105.545 31.9828 105.283 31.6655 105.106C31.3575 104.929 31.0215 104.84 30.6575 104.84C30.3028 104.84 29.9668 104.933 29.6495 105.12C29.3415 105.297 29.0895 105.559 28.8935 105.904C28.7068 106.249 28.6135 106.655 28.6135 107.122C28.6135 107.589 28.7068 107.995 28.8935 108.34C29.0895 108.685 29.3415 108.951 29.6495 109.138C29.9668 109.315 30.3028 109.404 30.6575 109.404C31.0215 109.404 31.3575 109.311 31.6655 109.124C31.9828 108.937 32.2348 108.671 32.4215 108.326C32.6175 107.981 32.7155 107.57 32.7155 107.094ZM39.1798 103.118C39.7584 103.118 40.2671 103.235 40.7058 103.468C41.1444 103.692 41.4898 103.986 41.7418 104.35V103.244H43.7158V111.056C43.7158 111.775 43.5711 112.414 43.2818 112.974C42.9924 113.543 42.5584 113.991 41.9798 114.318C41.4011 114.654 40.7011 114.822 39.8798 114.822C38.7784 114.822 37.8731 114.565 37.1638 114.052C36.4638 113.539 36.0671 112.839 35.9738 111.952H37.9198C38.0224 112.307 38.2418 112.587 38.5778 112.792C38.9231 113.007 39.3384 113.114 39.8238 113.114C40.3931 113.114 40.8551 112.941 41.2098 112.596C41.5644 112.26 41.7418 111.747 41.7418 111.056V109.852C41.4898 110.216 41.1398 110.519 40.6918 110.762C40.2531 111.005 39.7491 111.126 39.1798 111.126C38.5264 111.126 37.9291 110.958 37.3878 110.622C36.8464 110.286 36.4171 109.815 36.0998 109.208C35.7918 108.592 35.6378 107.887 35.6378 107.094C35.6378 106.31 35.7918 105.615 36.0998 105.008C36.4171 104.401 36.8418 103.935 37.3738 103.608C37.9151 103.281 38.5171 103.118 39.1798 103.118ZM41.7418 107.122C41.7418 106.646 41.6484 106.24 41.4618 105.904C41.2751 105.559 41.0231 105.297 40.7058 105.12C40.3884 104.933 40.0478 104.84 39.6838 104.84C39.3198 104.84 38.9838 104.929 38.6758 105.106C38.3678 105.283 38.1158 105.545 37.9198 105.89C37.7331 106.226 37.6398 106.627 37.6398 107.094C37.6398 107.561 37.7331 107.971 37.9198 108.326C38.1158 108.671 38.3678 108.937 38.6758 109.124C38.9931 109.311 39.3291 109.404 39.6838 109.404C40.0478 109.404 40.3884 109.315 40.7058 109.138C41.0231 108.951 41.2751 108.69 41.4618 108.354C41.6484 108.009 41.7418 107.598 41.7418 107.122ZM47.5901 104.448C47.8421 104.037 48.1687 103.715 48.5701 103.482C48.9807 103.249 49.4474 103.132 49.9701 103.132V105.19H49.4521C48.8361 105.19 48.3694 105.335 48.0521 105.624C47.7441 105.913 47.5901 106.417 47.5901 107.136V111H45.6301V103.244H47.5901V104.448ZM50.7862 107.094C50.7862 106.31 50.9402 105.615 51.2482 105.008C51.5656 104.401 51.9902 103.935 52.5222 103.608C53.0636 103.281 53.6656 103.118 54.3282 103.118C54.9069 103.118 55.4109 103.235 55.8402 103.468C56.2789 103.701 56.6289 103.995 56.8902 104.35V103.244H58.8642V111H56.8902V109.866C56.6382 110.23 56.2882 110.533 55.8402 110.776C55.4016 111.009 54.8929 111.126 54.3142 111.126C53.6609 111.126 53.0636 110.958 52.5222 110.622C51.9902 110.286 51.5656 109.815 51.2482 109.208C50.9402 108.592 50.7862 107.887 50.7862 107.094ZM56.8902 107.122C56.8902 106.646 56.7969 106.24 56.6102 105.904C56.4236 105.559 56.1716 105.297 55.8542 105.12C55.5369 104.933 55.1962 104.84 54.8322 104.84C54.4682 104.84 54.1322 104.929 53.8242 105.106C53.5162 105.283 53.2642 105.545 53.0682 105.89C52.8816 106.226 52.7882 106.627 52.7882 107.094C52.7882 107.561 52.8816 107.971 53.0682 108.326C53.2642 108.671 53.5162 108.937 53.8242 109.124C54.1416 109.311 54.4776 109.404 54.8322 109.404C55.1962 109.404 55.5369 109.315 55.8542 109.138C56.1716 108.951 56.4236 108.69 56.6102 108.354C56.7969 108.009 56.8902 107.598 56.8902 107.122ZM60.2745 107.094C60.2745 106.31 60.4285 105.615 60.7365 105.008C61.0538 104.401 61.4832 103.935 62.0245 103.608C62.5658 103.281 63.1678 103.118 63.8305 103.118C64.3345 103.118 64.8152 103.23 65.2725 103.454C65.7298 103.669 66.0938 103.958 66.3645 104.322V100.64H68.3525V111H66.3645V109.852C66.1218 110.235 65.7812 110.543 65.3425 110.776C64.9038 111.009 64.3952 111.126 63.8165 111.126C63.1632 111.126 62.5658 110.958 62.0245 110.622C61.4832 110.286 61.0538 109.815 60.7365 109.208C60.4285 108.592 60.2745 107.887 60.2745 107.094ZM66.3785 107.122C66.3785 106.646 66.2852 106.24 66.0985 105.904C65.9118 105.559 65.6598 105.297 65.3425 105.12C65.0252 104.933 64.6845 104.84 64.3205 104.84C63.9565 104.84 63.6205 104.929 63.3125 105.106C63.0045 105.283 62.7525 105.545 62.5565 105.89C62.3698 106.226 62.2765 106.627 62.2765 107.094C62.2765 107.561 62.3698 107.971 62.5565 108.326C62.7525 108.671 63.0045 108.937 63.3125 109.124C63.6298 109.311 63.9658 109.404 64.3205 109.404C64.6845 109.404 65.0252 109.315 65.3425 109.138C65.6598 108.951 65.9118 108.69 66.0985 108.354C66.2852 108.009 66.3785 107.598 66.3785 107.122ZM77.4768 106.954C77.4768 107.234 77.4581 107.486 77.4208 107.71H71.7508C71.7974 108.27 71.9934 108.709 72.3388 109.026C72.6841 109.343 73.1088 109.502 73.6128 109.502C74.3408 109.502 74.8588 109.189 75.1668 108.564H77.2808C77.0568 109.311 76.6274 109.927 75.9928 110.412C75.3581 110.888 74.5788 111.126 73.6548 111.126C72.9081 111.126 72.2361 110.963 71.6388 110.636C71.0508 110.3 70.5888 109.829 70.2528 109.222C69.9261 108.615 69.7628 107.915 69.7628 107.122C69.7628 106.319 69.9261 105.615 70.2528 105.008C70.5794 104.401 71.0368 103.935 71.6248 103.608C72.2128 103.281 72.8894 103.118 73.6548 103.118C74.3921 103.118 75.0501 103.277 75.6288 103.594C76.2168 103.911 76.6694 104.364 76.9868 104.952C77.3134 105.531 77.4768 106.198 77.4768 106.954ZM75.4468 106.394C75.4374 105.89 75.2554 105.489 74.9008 105.19C74.5461 104.882 74.1121 104.728 73.5988 104.728C73.1134 104.728 72.7028 104.877 72.3668 105.176C72.0401 105.465 71.8394 105.871 71.7648 106.394H75.4468ZM84.5253 104.854V108.606C84.5253 108.867 84.586 109.059 84.7073 109.18C84.838 109.292 85.0527 109.348 85.3513 109.348H86.2613V111H85.0293C83.3773 111 82.5513 110.197 82.5513 108.592V104.854H81.6273V103.244H82.5513V101.326H84.5253V103.244H86.2613V104.854H84.5253ZM91.1151 111.126C90.3684 111.126 89.6964 110.963 89.0991 110.636C88.5017 110.3 88.0304 109.829 87.6851 109.222C87.3491 108.615 87.1811 107.915 87.1811 107.122C87.1811 106.329 87.3537 105.629 87.6991 105.022C88.0537 104.415 88.5344 103.949 89.1411 103.622C89.7477 103.286 90.4244 103.118 91.1711 103.118C91.9177 103.118 92.5944 103.286 93.2011 103.622C93.8077 103.949 94.2837 104.415 94.6291 105.022C94.9837 105.629 95.1611 106.329 95.1611 107.122C95.1611 107.915 94.9791 108.615 94.6151 109.222C94.2604 109.829 93.7751 110.3 93.1591 110.636C92.5524 110.963 91.8711 111.126 91.1151 111.126ZM91.1151 109.418C91.4697 109.418 91.8011 109.334 92.1091 109.166C92.4264 108.989 92.6784 108.727 92.8651 108.382C93.0517 108.037 93.1451 107.617 93.1451 107.122C93.1451 106.385 92.9491 105.82 92.5571 105.428C92.1744 105.027 91.7031 104.826 91.1431 104.826C90.5831 104.826 90.1117 105.027 89.7291 105.428C89.3557 105.82 89.1691 106.385 89.1691 107.122C89.1691 107.859 89.3511 108.429 89.7151 108.83C90.0884 109.222 90.5551 109.418 91.1151 109.418ZM107.061 104.252C107.061 104.775 106.935 105.265 106.683 105.722C106.44 106.179 106.053 106.548 105.521 106.828C104.998 107.108 104.335 107.248 103.533 107.248H101.895V111H99.9348V101.228H103.533C104.289 101.228 104.933 101.359 105.465 101.62C105.997 101.881 106.393 102.241 106.655 102.698C106.925 103.155 107.061 103.673 107.061 104.252ZM103.449 105.666C103.99 105.666 104.391 105.545 104.653 105.302C104.914 105.05 105.045 104.7 105.045 104.252C105.045 103.3 104.513 102.824 103.449 102.824H101.895V105.666H103.449ZM110.412 104.448C110.664 104.037 110.991 103.715 111.392 103.482C111.803 103.249 112.27 103.132 112.792 103.132V105.19H112.274C111.658 105.19 111.192 105.335 110.874 105.624C110.566 105.913 110.412 106.417 110.412 107.136V111H108.452V103.244H110.412V104.448ZM117.556 111.126C116.81 111.126 116.138 110.963 115.54 110.636C114.943 110.3 114.472 109.829 114.126 109.222C113.79 108.615 113.622 107.915 113.622 107.122C113.622 106.329 113.795 105.629 114.14 105.022C114.495 104.415 114.976 103.949 115.582 103.622C116.189 103.286 116.866 103.118 117.612 103.118C118.359 103.118 119.036 103.286 119.642 103.622C120.249 103.949 120.725 104.415 121.07 105.022C121.425 105.629 121.602 106.329 121.602 107.122C121.602 107.915 121.42 108.615 121.056 109.222C120.702 109.829 120.216 110.3 119.6 110.636C118.994 110.963 118.312 111.126 117.556 111.126ZM117.556 109.418C117.911 109.418 118.242 109.334 118.55 109.166C118.868 108.989 119.12 108.727 119.306 108.382C119.493 108.037 119.586 107.617 119.586 107.122C119.586 106.385 119.39 105.82 118.998 105.428C118.616 105.027 118.144 104.826 117.584 104.826C117.024 104.826 116.553 105.027 116.17 105.428C115.797 105.82 115.61 106.385 115.61 107.122C115.61 107.859 115.792 108.429 116.156 108.83C116.53 109.222 116.996 109.418 117.556 109.418Z" fill="white"/>
<path opacity="0.4" d="M5.12195 132.51C5.12195 131.83 5.27862 131.22 5.59195 130.68C5.91195 130.14 6.34195 129.72 6.88195 129.42C7.42862 129.113 8.02529 128.96 8.67195 128.96C9.41195 128.96 10.0686 129.143 10.642 129.51C11.222 129.87 11.642 130.383 11.902 131.05H10.532C10.352 130.683 10.102 130.41 9.78195 130.23C9.46195 130.05 9.09195 129.96 8.67195 129.96C8.21195 129.96 7.80195 130.063 7.44195 130.27C7.08195 130.477 6.79862 130.773 6.59195 131.16C6.39195 131.547 6.29195 131.997 6.29195 132.51C6.29195 133.023 6.39195 133.473 6.59195 133.86C6.79862 134.247 7.08195 134.547 7.44195 134.76C7.80195 134.967 8.21195 135.07 8.67195 135.07C9.09195 135.07 9.46195 134.98 9.78195 134.8C10.102 134.62 10.352 134.347 10.532 133.98H11.902C11.642 134.647 11.222 135.16 10.642 135.52C10.0686 135.88 9.41195 136.06 8.67195 136.06C8.01862 136.06 7.42195 135.91 6.88195 135.61C6.34195 135.303 5.91195 134.88 5.59195 134.34C5.27862 133.8 5.12195 133.19 5.12195 132.51ZM16.0863 130.4C16.5063 130.4 16.8797 130.49 17.2063 130.67C17.5397 130.85 17.7997 131.117 17.9863 131.47C18.1797 131.823 18.2763 132.25 18.2763 132.75V136H17.1463V132.92C17.1463 132.427 17.023 132.05 16.7763 131.79C16.5297 131.523 16.193 131.39 15.7663 131.39C15.3397 131.39 14.9997 131.523 14.7463 131.79C14.4997 132.05 14.3763 132.427 14.3763 132.92V136H13.2363V128.6H14.3763V131.13C14.5697 130.897 14.813 130.717 15.1063 130.59C15.4063 130.463 15.733 130.4 16.0863 130.4ZM24.7805 133.11C24.7805 133.317 24.7671 133.503 24.7405 133.67H20.5305C20.5638 134.11 20.7271 134.463 21.0205 134.73C21.3138 134.997 21.6738 135.13 22.1005 135.13C22.7138 135.13 23.1471 134.873 23.4005 134.36H24.6305C24.4638 134.867 24.1605 135.283 23.7205 135.61C23.2871 135.93 22.7471 136.09 22.1005 136.09C21.5738 136.09 21.1005 135.973 20.6805 135.74C20.2671 135.5 19.9405 135.167 19.7005 134.74C19.4671 134.307 19.3505 133.807 19.3505 133.24C19.3505 132.673 19.4638 132.177 19.6905 131.75C19.9238 131.317 20.2471 130.983 20.6605 130.75C21.0805 130.517 21.5605 130.4 22.1005 130.4C22.6205 130.4 23.0838 130.513 23.4905 130.74C23.8971 130.967 24.2138 131.287 24.4405 131.7C24.6671 132.107 24.7805 132.577 24.7805 133.11ZM23.5905 132.75C23.5838 132.33 23.4338 131.993 23.1405 131.74C22.8471 131.487 22.4838 131.36 22.0505 131.36C21.6571 131.36 21.3205 131.487 21.0405 131.74C20.7605 131.987 20.5938 132.323 20.5405 132.75H23.5905ZM25.5223 133.24C25.5223 132.673 25.6357 132.177 25.8623 131.75C26.0957 131.317 26.4157 130.983 26.8223 130.75C27.229 130.517 27.6957 130.4 28.2223 130.4C28.889 130.4 29.439 130.56 29.8723 130.88C30.3123 131.193 30.609 131.643 30.7623 132.23H29.5323C29.4323 131.957 29.2723 131.743 29.0523 131.59C28.8323 131.437 28.5557 131.36 28.2223 131.36C27.7557 131.36 27.3823 131.527 27.1023 131.86C26.829 132.187 26.6923 132.647 26.6923 133.24C26.6923 133.833 26.829 134.297 27.1023 134.63C27.3823 134.963 27.7557 135.13 28.2223 135.13C28.8823 135.13 29.319 134.84 29.5323 134.26H30.7623C30.6023 134.82 30.3023 135.267 29.8623 135.6C29.4223 135.927 28.8757 136.09 28.2223 136.09C27.6957 136.09 27.229 135.973 26.8223 135.74C26.4157 135.5 26.0957 135.167 25.8623 134.74C25.6357 134.307 25.5223 133.807 25.5223 133.24ZM34.0784 133.25L36.6184 136H35.0784L33.0384 133.63V136H31.8984V128.6H33.0384V132.9L35.0384 130.49H36.6184L34.0784 133.25ZM44.9932 130.49L41.6132 138.59H40.4332L41.5532 135.91L39.3832 130.49H40.6532L42.2032 134.69L43.8132 130.49H44.9932ZM48.2435 136.09C47.7235 136.09 47.2535 135.973 46.8335 135.74C46.4135 135.5 46.0835 135.167 45.8435 134.74C45.6035 134.307 45.4835 133.807 45.4835 133.24C45.4835 132.68 45.6068 132.183 45.8535 131.75C46.1002 131.317 46.4368 130.983 46.8635 130.75C47.2902 130.517 47.7668 130.4 48.2935 130.4C48.8202 130.4 49.2968 130.517 49.7235 130.75C50.1502 130.983 50.4868 131.317 50.7335 131.75C50.9802 132.183 51.1035 132.68 51.1035 133.24C51.1035 133.8 50.9768 134.297 50.7235 134.73C50.4702 135.163 50.1235 135.5 49.6835 135.74C49.2502 135.973 48.7702 136.09 48.2435 136.09ZM48.2435 135.1C48.5368 135.1 48.8102 135.03 49.0635 134.89C49.3235 134.75 49.5335 134.54 49.6935 134.26C49.8535 133.98 49.9335 133.64 49.9335 133.24C49.9335 132.84 49.8568 132.503 49.7035 132.23C49.5502 131.95 49.3468 131.74 49.0935 131.6C48.8402 131.46 48.5668 131.39 48.2735 131.39C47.9802 131.39 47.7068 131.46 47.4535 131.6C47.2068 131.74 47.0102 131.95 46.8635 132.23C46.7168 132.503 46.6435 132.84 46.6435 133.24C46.6435 133.833 46.7935 134.293 47.0935 134.62C47.4002 134.94 47.7835 135.1 48.2435 135.1ZM57.2205 130.49V136H56.0805V135.35C55.9005 135.577 55.6638 135.757 55.3705 135.89C55.0838 136.017 54.7771 136.08 54.4505 136.08C54.0171 136.08 53.6271 135.99 53.2805 135.81C52.9405 135.63 52.6705 135.363 52.4705 135.01C52.2771 134.657 52.1805 134.23 52.1805 133.73V130.49H53.3105V133.56C53.3105 134.053 53.4338 134.433 53.6805 134.7C53.9271 134.96 54.2638 135.09 54.6905 135.09C55.1171 135.09 55.4538 134.96 55.7005 134.7C55.9538 134.433 56.0805 134.053 56.0805 133.56V130.49H57.2205ZM59.8646 131.29C60.0313 131.01 60.2513 130.793 60.5246 130.64C60.8046 130.48 61.1346 130.4 61.5146 130.4V131.58H61.2246C60.7779 131.58 60.4379 131.693 60.2046 131.92C59.9779 132.147 59.8646 132.54 59.8646 133.1V136H58.7246V130.49H59.8646V131.29ZM71.8302 130.4C72.2635 130.4 72.6502 130.49 72.9902 130.67C73.3368 130.85 73.6068 131.117 73.8002 131.47C74.0002 131.823 74.1002 132.25 74.1002 132.75V136H72.9702V132.92C72.9702 132.427 72.8468 132.05 72.6002 131.79C72.3535 131.523 72.0168 131.39 71.5902 131.39C71.1635 131.39 70.8235 131.523 70.5702 131.79C70.3235 132.05 70.2002 132.427 70.2002 132.92V136H69.0702V132.92C69.0702 132.427 68.9468 132.05 68.7002 131.79C68.4535 131.523 68.1168 131.39 67.6902 131.39C67.2635 131.39 66.9235 131.523 66.6702 131.79C66.4235 132.05 66.3002 132.427 66.3002 132.92V136H65.1602V130.49H66.3002V131.12C66.4868 130.893 66.7235 130.717 67.0102 130.59C67.2968 130.463 67.6035 130.4 67.9302 130.4C68.3702 130.4 68.7635 130.493 69.1102 130.68C69.4568 130.867 69.7235 131.137 69.9102 131.49C70.0768 131.157 70.3368 130.893 70.6902 130.7C71.0435 130.5 71.4235 130.4 71.8302 130.4ZM75.1708 133.22C75.1708 132.667 75.2841 132.177 75.5108 131.75C75.7441 131.323 76.0574 130.993 76.4508 130.76C76.8508 130.52 77.2908 130.4 77.7708 130.4C78.2041 130.4 78.5808 130.487 78.9008 130.66C79.2274 130.827 79.4874 131.037 79.6808 131.29V130.49H80.8308V136H79.6808V135.18C79.4874 135.44 79.2241 135.657 78.8908 135.83C78.5574 136.003 78.1774 136.09 77.7508 136.09C77.2774 136.09 76.8441 135.97 76.4508 135.73C76.0574 135.483 75.7441 135.143 75.5108 134.71C75.2841 134.27 75.1708 133.773 75.1708 133.22ZM79.6808 133.24C79.6808 132.86 79.6008 132.53 79.4408 132.25C79.2874 131.97 79.0841 131.757 78.8308 131.61C78.5774 131.463 78.3041 131.39 78.0108 131.39C77.7174 131.39 77.4441 131.463 77.1908 131.61C76.9374 131.75 76.7308 131.96 76.5708 132.24C76.4174 132.513 76.3408 132.84 76.3408 133.22C76.3408 133.6 76.4174 133.933 76.5708 134.22C76.7308 134.507 76.9374 134.727 77.1908 134.88C77.4508 135.027 77.7241 135.1 78.0108 135.1C78.3041 135.1 78.5774 135.027 78.8308 134.88C79.0841 134.733 79.2874 134.52 79.4408 134.24C79.6008 133.953 79.6808 133.62 79.6808 133.24ZM84.5481 130.4C84.9748 130.4 85.3515 130.487 85.6781 130.66C86.0115 130.827 86.2715 131.037 86.4581 131.29V130.49H87.6081V136.09C87.6081 136.597 87.5015 137.047 87.2881 137.44C87.0748 137.84 86.7648 138.153 86.3581 138.38C85.9581 138.607 85.4781 138.72 84.9181 138.72C84.1715 138.72 83.5515 138.543 83.0581 138.19C82.5648 137.843 82.2848 137.37 82.2181 136.77H83.3481C83.4348 137.057 83.6181 137.287 83.8981 137.46C84.1848 137.64 84.5248 137.73 84.9181 137.73C85.3781 137.73 85.7481 137.59 86.0281 137.31C86.3148 137.03 86.4581 136.623 86.4581 136.09V135.17C86.2648 135.43 86.0015 135.65 85.6681 135.83C85.3415 136.003 84.9681 136.09 84.5481 136.09C84.0681 136.09 83.6281 135.97 83.2281 135.73C82.8348 135.483 82.5215 135.143 82.2881 134.71C82.0615 134.27 81.9481 133.773 81.9481 133.22C81.9481 132.667 82.0615 132.177 82.2881 131.75C82.5215 131.323 82.8348 130.993 83.2281 130.76C83.6281 130.52 84.0681 130.4 84.5481 130.4ZM86.4581 133.24C86.4581 132.86 86.3781 132.53 86.2181 132.25C86.0648 131.97 85.8615 131.757 85.6081 131.61C85.3548 131.463 85.0815 131.39 84.7881 131.39C84.4948 131.39 84.2215 131.463 83.9681 131.61C83.7148 131.75 83.5081 131.96 83.3481 132.24C83.1948 132.513 83.1181 132.84 83.1181 133.22C83.1181 133.6 83.1948 133.933 83.3481 134.22C83.5081 134.507 83.7148 134.727 83.9681 134.88C84.2281 135.027 84.5015 135.1 84.7881 135.1C85.0815 135.1 85.3548 135.027 85.6081 134.88C85.8615 134.733 86.0648 134.52 86.2181 134.24C86.3781 133.953 86.4581 133.62 86.4581 133.24ZM89.6855 129.76C89.4788 129.76 89.3055 129.69 89.1655 129.55C89.0255 129.41 88.9555 129.237 88.9555 129.03C88.9555 128.823 89.0255 128.65 89.1655 128.51C89.3055 128.37 89.4788 128.3 89.6855 128.3C89.8855 128.3 90.0555 128.37 90.1955 128.51C90.3355 128.65 90.4055 128.823 90.4055 129.03C90.4055 129.237 90.3355 129.41 90.1955 129.55C90.0555 129.69 89.8855 129.76 89.6855 129.76ZM90.2455 130.49V136H89.1055V130.49H90.2455ZM91.3622 133.24C91.3622 132.673 91.4755 132.177 91.7022 131.75C91.9355 131.317 92.2555 130.983 92.6622 130.75C93.0689 130.517 93.5355 130.4 94.0622 130.4C94.7289 130.4 95.2789 130.56 95.7122 130.88C96.1522 131.193 96.4489 131.643 96.6022 132.23H95.3722C95.2722 131.957 95.1122 131.743 94.8922 131.59C94.6722 131.437 94.3955 131.36 94.0622 131.36C93.5955 131.36 93.2222 131.527 92.9422 131.86C92.6689 132.187 92.5322 132.647 92.5322 133.24C92.5322 133.833 92.6689 134.297 92.9422 134.63C93.2222 134.963 93.5955 135.13 94.0622 135.13C94.7222 135.13 95.1589 134.84 95.3722 134.26H96.6022C96.4422 134.82 96.1422 135.267 95.7022 135.6C95.2622 135.927 94.7155 136.09 94.0622 136.09C93.5355 136.09 93.0689 135.973 92.6622 135.74C92.2555 135.5 91.9355 135.167 91.7022 134.74C91.4755 134.307 91.3622 133.807 91.3622 133.24ZM102.726 136.09C102.206 136.09 101.736 135.973 101.316 135.74C100.896 135.5 100.566 135.167 100.326 134.74C100.086 134.307 99.9659 133.807 99.9659 133.24C99.9659 132.68 100.089 132.183 100.336 131.75C100.583 131.317 100.919 130.983 101.346 130.75C101.773 130.517 102.249 130.4 102.776 130.4C103.303 130.4 103.779 130.517 104.206 130.75C104.633 130.983 104.969 131.317 105.216 131.75C105.463 132.183 105.586 132.68 105.586 133.24C105.586 133.8 105.459 134.297 105.206 134.73C104.953 135.163 104.606 135.5 104.166 135.74C103.733 135.973 103.253 136.09 102.726 136.09ZM102.726 135.1C103.019 135.1 103.293 135.03 103.546 134.89C103.806 134.75 104.016 134.54 104.176 134.26C104.336 133.98 104.416 133.64 104.416 133.24C104.416 132.84 104.339 132.503 104.186 132.23C104.033 131.95 103.829 131.74 103.576 131.6C103.323 131.46 103.049 131.39 102.756 131.39C102.463 131.39 102.189 131.46 101.936 131.6C101.689 131.74 101.493 131.95 101.346 132.23C101.199 132.503 101.126 132.84 101.126 133.24C101.126 133.833 101.276 134.293 101.576 134.62C101.883 134.94 102.266 135.1 102.726 135.1ZM109.493 130.4C109.926 130.4 110.313 130.49 110.653 130.67C111 130.85 111.27 131.117 111.463 131.47C111.656 131.823 111.753 132.25 111.753 132.75V136H110.623V132.92C110.623 132.427 110.5 132.05 110.253 131.79C110.006 131.523 109.67 131.39 109.243 131.39C108.816 131.39 108.476 131.523 108.223 131.79C107.976 132.05 107.853 132.427 107.853 132.92V136H106.713V130.49H107.853V131.12C108.04 130.893 108.276 130.717 108.563 130.59C108.856 130.463 109.166 130.4 109.493 130.4ZM117.135 131.42V134.47C117.135 134.677 117.181 134.827 117.275 134.92C117.375 135.007 117.541 135.05 117.775 135.05H118.475V136H117.575C117.061 136 116.668 135.88 116.395 135.64C116.121 135.4 115.985 135.01 115.985 134.47V131.42H115.335V130.49H115.985V129.12H117.135V130.49H118.475V131.42H117.135ZM122.375 130.4C122.795 130.4 123.169 130.49 123.495 130.67C123.829 130.85 124.089 131.117 124.275 131.47C124.469 131.823 124.565 132.25 124.565 132.75V136H123.435V132.92C123.435 132.427 123.312 132.05 123.065 131.79C122.819 131.523 122.482 131.39 122.055 131.39C121.629 131.39 121.289 131.523 121.035 131.79C120.789 132.05 120.665 132.427 120.665 132.92V136H119.525V128.6H120.665V131.13C120.859 130.897 121.102 130.717 121.395 130.59C121.695 130.463 122.022 130.4 122.375 130.4ZM126.6 129.76C126.393 129.76 126.22 129.69 126.08 129.55C125.94 129.41 125.87 129.237 125.87 129.03C125.87 128.823 125.94 128.65 126.08 128.51C126.22 128.37 126.393 128.3 126.6 128.3C126.8 128.3 126.97 128.37 127.11 128.51C127.25 128.65 127.32 128.823 127.32 129.03C127.32 129.237 127.25 129.41 127.11 129.55C126.97 129.69 126.8 129.76 126.6 129.76ZM127.16 130.49V136H126.02V130.49H127.16ZM130.656 136.09C130.223 136.09 129.833 136.013 129.486 135.86C129.146 135.7 128.876 135.487 128.676 135.22C128.476 134.947 128.37 134.643 128.356 134.31H129.536C129.556 134.543 129.666 134.74 129.866 134.9C130.073 135.053 130.33 135.13 130.636 135.13C130.956 135.13 131.203 135.07 131.376 134.95C131.556 134.823 131.646 134.663 131.646 134.47C131.646 134.263 131.546 134.11 131.346 134.01C131.153 133.91 130.843 133.8 130.416 133.68C130.003 133.567 129.666 133.457 129.406 133.35C129.146 133.243 128.92 133.08 128.726 132.86C128.54 132.64 128.446 132.35 128.446 131.99C128.446 131.697 128.533 131.43 128.706 131.19C128.88 130.943 129.126 130.75 129.446 130.61C129.773 130.47 130.146 130.4 130.566 130.4C131.193 130.4 131.696 130.56 132.076 130.88C132.463 131.193 132.67 131.623 132.696 132.17H131.556C131.536 131.923 131.436 131.727 131.256 131.58C131.076 131.433 130.833 131.36 130.526 131.36C130.226 131.36 129.996 131.417 129.836 131.53C129.676 131.643 129.596 131.793 129.596 131.98C129.596 132.127 129.65 132.25 129.756 132.35C129.863 132.45 129.993 132.53 130.146 132.59C130.3 132.643 130.526 132.713 130.826 132.8C131.226 132.907 131.553 133.017 131.806 133.13C132.066 133.237 132.29 133.397 132.476 133.61C132.663 133.823 132.76 134.107 132.766 134.46C132.766 134.773 132.68 135.053 132.506 135.3C132.333 135.547 132.086 135.74 131.766 135.88C131.453 136.02 131.083 136.09 130.656 136.09ZM37.1051 146.12C37.1051 146.473 37.0218 146.807 36.8551 147.12C36.6885 147.433 36.4218 147.69 36.0551 147.89C35.6885 148.083 35.2185 148.18 34.6451 148.18H33.3851V151H32.2451V144.05H34.6451C35.1785 144.05 35.6285 144.143 35.9951 144.33C36.3685 144.51 36.6451 144.757 36.8251 145.07C37.0118 145.383 37.1051 145.733 37.1051 146.12ZM34.6451 147.25C35.0785 147.25 35.4018 147.153 35.6151 146.96C35.8285 146.76 35.9351 146.48 35.9351 146.12C35.9351 145.36 35.5051 144.98 34.6451 144.98H33.3851V147.25H34.6451ZM39.3324 146.29C39.499 146.01 39.719 145.793 39.9924 145.64C40.2724 145.48 40.6024 145.4 40.9824 145.4V146.58H40.6924C40.2457 146.58 39.9057 146.693 39.6724 146.92C39.4457 147.147 39.3324 147.54 39.3324 148.1V151H38.1924V145.49H39.3324V146.29ZM44.4203 151.09C43.9003 151.09 43.4303 150.973 43.0103 150.74C42.5903 150.5 42.2603 150.167 42.0203 149.74C41.7803 149.307 41.6603 148.807 41.6603 148.24C41.6603 147.68 41.7836 147.183 42.0303 146.75C42.2769 146.317 42.6136 145.983 43.0403 145.75C43.4669 145.517 43.9436 145.4 44.4703 145.4C44.9969 145.4 45.4736 145.517 45.9003 145.75C46.3269 145.983 46.6636 146.317 46.9103 146.75C47.1569 147.183 47.2803 147.68 47.2803 148.24C47.2803 148.8 47.1536 149.297 46.9003 149.73C46.6469 150.163 46.3003 150.5 45.8603 150.74C45.4269 150.973 44.9469 151.09 44.4203 151.09ZM44.4203 150.1C44.7136 150.1 44.9869 150.03 45.2403 149.89C45.5003 149.75 45.7103 149.54 45.8703 149.26C46.0303 148.98 46.1103 148.64 46.1103 148.24C46.1103 147.84 46.0336 147.503 45.8803 147.23C45.7269 146.95 45.5236 146.74 45.2703 146.6C45.0169 146.46 44.7436 146.39 44.4503 146.39C44.1569 146.39 43.8836 146.46 43.6303 146.6C43.3836 146.74 43.1869 146.95 43.0403 147.23C42.8936 147.503 42.8203 147.84 42.8203 148.24C42.8203 148.833 42.9703 149.293 43.2703 149.62C43.5769 149.94 43.9603 150.1 44.4203 150.1ZM53.2749 144.05C54.0149 144.05 54.6615 144.193 55.2149 144.48C55.7749 144.76 56.2049 145.167 56.5049 145.7C56.8115 146.227 56.9649 146.843 56.9649 147.55C56.9649 148.257 56.8115 148.87 56.5049 149.39C56.2049 149.91 55.7749 150.31 55.2149 150.59C54.6615 150.863 54.0149 151 53.2749 151H51.0049V144.05H53.2749ZM53.2749 150.07C54.0882 150.07 54.7115 149.85 55.1449 149.41C55.5782 148.97 55.7949 148.35 55.7949 147.55C55.7949 146.743 55.5782 146.113 55.1449 145.66C54.7115 145.207 54.0882 144.98 53.2749 144.98H52.1449V150.07H53.2749ZM57.7147 148.22C57.7147 147.667 57.8281 147.177 58.0547 146.75C58.2881 146.323 58.6014 145.993 58.9947 145.76C59.3947 145.52 59.8347 145.4 60.3147 145.4C60.7481 145.4 61.1247 145.487 61.4447 145.66C61.7714 145.827 62.0314 146.037 62.2247 146.29V145.49H63.3747V151H62.2247V150.18C62.0314 150.44 61.7681 150.657 61.4347 150.83C61.1014 151.003 60.7214 151.09 60.2947 151.09C59.8214 151.09 59.3881 150.97 58.9947 150.73C58.6014 150.483 58.2881 150.143 58.0547 149.71C57.8281 149.27 57.7147 148.773 57.7147 148.22ZM62.2247 148.24C62.2247 147.86 62.1447 147.53 61.9847 147.25C61.8314 146.97 61.6281 146.757 61.3747 146.61C61.1214 146.463 60.8481 146.39 60.5547 146.39C60.2614 146.39 59.9881 146.463 59.7347 146.61C59.4814 146.75 59.2747 146.96 59.1147 147.24C58.9614 147.513 58.8847 147.84 58.8847 148.22C58.8847 148.6 58.9614 148.933 59.1147 149.22C59.2747 149.507 59.4814 149.727 59.7347 149.88C59.9947 150.027 60.2681 150.1 60.5547 150.1C60.8481 150.1 61.1214 150.027 61.3747 149.88C61.6281 149.733 61.8314 149.52 61.9847 149.24C62.1447 148.953 62.2247 148.62 62.2247 148.24ZM66.8721 151.09C66.4387 151.09 66.0487 151.013 65.7021 150.86C65.3621 150.7 65.0921 150.487 64.8921 150.22C64.6921 149.947 64.5854 149.643 64.5721 149.31H65.7521C65.7721 149.543 65.8821 149.74 66.0821 149.9C66.2887 150.053 66.5454 150.13 66.8521 150.13C67.1721 150.13 67.4187 150.07 67.5921 149.95C67.7721 149.823 67.8621 149.663 67.8621 149.47C67.8621 149.263 67.7621 149.11 67.5621 149.01C67.3687 148.91 67.0587 148.8 66.6321 148.68C66.2187 148.567 65.8821 148.457 65.6221 148.35C65.3621 148.243 65.1354 148.08 64.9421 147.86C64.7554 147.64 64.6621 147.35 64.6621 146.99C64.6621 146.697 64.7487 146.43 64.9221 146.19C65.0954 145.943 65.3421 145.75 65.6621 145.61C65.9887 145.47 66.3621 145.4 66.7821 145.4C67.4087 145.4 67.9121 145.56 68.2921 145.88C68.6787 146.193 68.8854 146.623 68.9121 147.17H67.7721C67.7521 146.923 67.6521 146.727 67.4721 146.58C67.2921 146.433 67.0487 146.36 66.7421 146.36C66.4421 146.36 66.2121 146.417 66.0521 146.53C65.8921 146.643 65.8121 146.793 65.8121 146.98C65.8121 147.127 65.8654 147.25 65.9721 147.35C66.0787 147.45 66.2087 147.53 66.3621 147.59C66.5154 147.643 66.7421 147.713 67.0421 147.8C67.4421 147.907 67.7687 148.017 68.0221 148.13C68.2821 148.237 68.5054 148.397 68.6921 148.61C68.8787 148.823 68.9754 149.107 68.9821 149.46C68.9821 149.773 68.8954 150.053 68.7221 150.3C68.5487 150.547 68.3021 150.74 67.9821 150.88C67.6687 151.02 67.2987 151.09 66.8721 151.09ZM73.0639 145.4C73.4839 145.4 73.8572 145.49 74.1839 145.67C74.5172 145.85 74.7772 146.117 74.9639 146.47C75.1572 146.823 75.2539 147.25 75.2539 147.75V151H74.1239V147.92C74.1239 147.427 74.0005 147.05 73.7539 146.79C73.5072 146.523 73.1705 146.39 72.7439 146.39C72.3172 146.39 71.9772 146.523 71.7239 146.79C71.4772 147.05 71.3539 147.427 71.3539 147.92V151H70.2139V143.6H71.3539V146.13C71.5472 145.897 71.7905 145.717 72.0839 145.59C72.3839 145.463 72.7105 145.4 73.0639 145.4ZM77.848 146.31C78.0413 146.043 78.3047 145.827 78.638 145.66C78.978 145.487 79.3547 145.4 79.768 145.4C80.2547 145.4 80.6947 145.517 81.088 145.75C81.4813 145.983 81.7913 146.317 82.018 146.75C82.2447 147.177 82.358 147.667 82.358 148.22C82.358 148.773 82.2447 149.27 82.018 149.71C81.7913 150.143 81.478 150.483 81.078 150.73C80.6847 150.97 80.248 151.09 79.768 151.09C79.3413 151.09 78.9613 151.007 78.628 150.84C78.3013 150.673 78.0413 150.46 77.848 150.2V151H76.708V143.6H77.848V146.31ZM81.198 148.22C81.198 147.84 81.118 147.513 80.958 147.24C80.8047 146.96 80.598 146.75 80.338 146.61C80.0847 146.463 79.8113 146.39 79.518 146.39C79.2313 146.39 78.958 146.463 78.698 146.61C78.4447 146.757 78.238 146.97 78.078 147.25C77.9247 147.53 77.848 147.86 77.848 148.24C77.848 148.62 77.9247 148.953 78.078 149.24C78.238 149.52 78.4447 149.733 78.698 149.88C78.958 150.027 79.2313 150.1 79.518 150.1C79.8113 150.1 80.0847 150.027 80.338 149.88C80.598 149.727 80.8047 149.507 80.958 149.22C81.118 148.933 81.198 148.6 81.198 148.22ZM85.8754 151.09C85.3554 151.09 84.8854 150.973 84.4654 150.74C84.0454 150.5 83.7154 150.167 83.4754 149.74C83.2354 149.307 83.1154 148.807 83.1154 148.24C83.1154 147.68 83.2387 147.183 83.4854 146.75C83.732 146.317 84.0687 145.983 84.4954 145.75C84.922 145.517 85.3987 145.4 85.9254 145.4C86.452 145.4 86.9287 145.517 87.3554 145.75C87.782 145.983 88.1187 146.317 88.3654 146.75C88.612 147.183 88.7354 147.68 88.7354 148.24C88.7354 148.8 88.6087 149.297 88.3554 149.73C88.102 150.163 87.7554 150.5 87.3154 150.74C86.882 150.973 86.402 151.09 85.8754 151.09ZM85.8754 150.1C86.1687 150.1 86.442 150.03 86.6954 149.89C86.9554 149.75 87.1654 149.54 87.3254 149.26C87.4854 148.98 87.5654 148.64 87.5654 148.24C87.5654 147.84 87.4887 147.503 87.3354 147.23C87.182 146.95 86.9787 146.74 86.7254 146.6C86.472 146.46 86.1987 146.39 85.9054 146.39C85.612 146.39 85.3387 146.46 85.0854 146.6C84.8387 146.74 84.642 146.95 84.4954 147.23C84.3487 147.503 84.2754 147.84 84.2754 148.24C84.2754 148.833 84.4254 149.293 84.7254 149.62C85.032 149.94 85.4154 150.1 85.8754 150.1ZM89.4823 148.22C89.4823 147.667 89.5956 147.177 89.8223 146.75C90.0556 146.323 90.369 145.993 90.7623 145.76C91.1623 145.52 91.6023 145.4 92.0823 145.4C92.5156 145.4 92.8923 145.487 93.2123 145.66C93.539 145.827 93.799 146.037 93.9923 146.29V145.49H95.1423V151H93.9923V150.18C93.799 150.44 93.5356 150.657 93.2023 150.83C92.869 151.003 92.489 151.09 92.0623 151.09C91.589 151.09 91.1556 150.97 90.7623 150.73C90.369 150.483 90.0556 150.143 89.8223 149.71C89.5956 149.27 89.4823 148.773 89.4823 148.22ZM93.9923 148.24C93.9923 147.86 93.9123 147.53 93.7523 147.25C93.599 146.97 93.3956 146.757 93.1423 146.61C92.889 146.463 92.6156 146.39 92.3223 146.39C92.029 146.39 91.7556 146.463 91.5023 146.61C91.249 146.75 91.0423 146.96 90.8823 147.24C90.729 147.513 90.6523 147.84 90.6523 148.22C90.6523 148.6 90.729 148.933 90.8823 149.22C91.0423 149.507 91.249 149.727 91.5023 149.88C91.7623 150.027 92.0356 150.1 92.3223 150.1C92.6156 150.1 92.889 150.027 93.1423 149.88C93.3956 149.733 93.599 149.52 93.7523 149.24C93.9123 148.953 93.9923 148.62 93.9923 148.24ZM97.7796 146.29C97.9463 146.01 98.1663 145.793 98.4396 145.64C98.7196 145.48 99.0496 145.4 99.4296 145.4V146.58H99.1396C98.693 146.58 98.353 146.693 98.1196 146.92C97.893 147.147 97.7796 147.54 97.7796 148.1V151H96.6396V145.49H97.7796V146.29ZM100.098 148.22C100.098 147.667 100.211 147.177 100.438 146.75C100.671 146.323 100.984 145.993 101.378 145.76C101.778 145.52 102.221 145.4 102.708 145.4C103.068 145.4 103.421 145.48 103.768 145.64C104.121 145.793 104.401 146 104.608 146.26V143.6H105.758V151H104.608V150.17C104.421 150.437 104.161 150.657 103.828 150.83C103.501 151.003 103.124 151.09 102.698 151.09C102.218 151.09 101.778 150.97 101.378 150.73C100.984 150.483 100.671 150.143 100.438 149.71C100.211 149.27 100.098 148.773 100.098 148.22ZM104.608 148.24C104.608 147.86 104.528 147.53 104.368 147.25C104.214 146.97 104.011 146.757 103.758 146.61C103.504 146.463 103.231 146.39 102.938 146.39C102.644 146.39 102.371 146.463 102.118 146.61C101.864 146.75 101.658 146.96 101.498 147.24C101.344 147.513 101.268 147.84 101.268 148.22C101.268 148.6 101.344 148.933 101.498 149.22C101.658 149.507 101.864 149.727 102.118 149.88C102.378 150.027 102.651 150.1 102.938 150.1C103.231 150.1 103.504 150.027 103.758 149.88C104.011 149.733 104.214 149.52 104.368 149.24C104.528 148.953 104.608 148.62 104.608 148.24Z" fill="white"/>
<ellipse cx="68.3636" cy="53.0035" rx="20.0013" ry="19.8448" fill="url(#paint1_linear_1_584)"/>
<path d="M76.3346 45.9913C76.3346 46.7607 76.2384 47.4338 76.0461 48.2032C75.5653 49.7419 74.6998 51.2805 73.2573 52.5307L66.6217 58.3008L63.1597 54.8387L68.9297 48.2032C70.0837 46.8568 71.5262 45.8952 73.0649 45.4143C74.1228 45.1258 75.1806 44.9335 76.2384 45.0297C76.3346 45.4143 76.3346 45.7028 76.3346 45.9913Z" stroke="white" stroke-width="0.75" stroke-miterlimit="10" stroke-linecap="round" stroke-linejoin="round"/>
<path d="M64.9867 59.1662L62.3902 56.5697C62.1017 56.2812 62.1017 55.8965 62.3902 55.7042L63.1595 54.9348L66.6216 58.3968L65.8522 59.1662C65.6599 59.3585 65.1791 59.3585 64.9867 59.1662Z" stroke="white" stroke-width="0.75" stroke-miterlimit="10" stroke-linecap="round" stroke-linejoin="round"/>
<path d="M67.8718 59.6471L66.6216 58.3969L72.6801 53.1077C73.4495 54.0693 69.9874 58.2045 68.8334 59.6471C68.5449 59.8394 68.1603 59.8394 67.8718 59.6471Z" stroke="white" stroke-width="0.75" stroke-miterlimit="10" stroke-linecap="round" stroke-linejoin="round"/>
<path d="M61.8129 53.5885L63.1592 54.9349L68.3523 48.9725C67.3906 48.2031 63.3515 51.569 61.909 52.723C61.6205 52.9153 61.5244 53.3 61.8129 53.5885Z" stroke="white" stroke-width="0.75" stroke-miterlimit="10" stroke-linecap="round" stroke-linejoin="round"/>
<path d="M76.3346 45.9914C76.3346 46.7607 76.2385 47.4339 76.0461 48.2032L73.0649 45.5105C74.1228 45.222 75.1806 45.0297 76.2385 45.1258C76.3346 45.4143 76.3346 45.7029 76.3346 45.9914Z" stroke="white" stroke-width="0.75" stroke-miterlimit="10" stroke-linecap="round" stroke-linejoin="round"/>
<path d="M71.6222 51.1843C72.472 51.1843 73.1609 50.4954 73.1609 49.6456C73.1609 48.7958 72.472 48.1069 71.6222 48.1069C70.7724 48.1069 70.0835 48.7958 70.0835 49.6456C70.0835 50.4954 70.7724 51.1843 71.6222 51.1843Z" stroke="white" stroke-width="0.75" stroke-miterlimit="10" stroke-linecap="round" stroke-linejoin="round"/>
<path d="M59.4089 61.4744L61.2361 58.6855C61.6207 58.1085 62.4862 58.0123 63.0632 58.4932C63.6402 59.0702 63.4479 59.9357 62.7747 60.3204L59.8897 61.859C59.505 62.1475 59.2165 61.7629 59.4089 61.4744Z" stroke="white" stroke-width="0.75" stroke-miterlimit="10" stroke-linecap="round" stroke-linejoin="round"/>
<ellipse cx="51.9985" cy="36.7287" rx="8.48531" ry="8.41892" fill="url(#paint2_linear_1_584)"/>
<path d="M53.7215 40.6113L52.286 41.4726C52.0946 41.6162 51.8075 41.6162 51.6161 41.4726L50.1806 40.6113C49.0322 39.9414 48.3623 38.793 48.3623 37.5489V34.6779C48.3623 34.3908 48.5537 34.1037 48.8408 34.0559L51.8075 33.1946C51.951 33.1467 52.0467 33.1467 52.1903 33.1946L55.157 34.0559C55.4441 34.1516 55.6355 34.3908 55.6355 34.6779V37.5489C55.5876 38.7452 54.8699 39.8936 53.7215 40.6113Z" stroke="white" stroke-width="0.75" stroke-miterlimit="10" stroke-linecap="round" stroke-linejoin="round"/>
<path d="M50.0366 37.4052L51.2807 38.6972L53.8646 36.0654" stroke="white" stroke-width="0.75" stroke-miterlimit="10" stroke-linecap="round" stroke-linejoin="round"/>
<defs>
<linearGradient id="paint0_linear_1_584" x1="35.7966" y1="31.526" x2="57.4068" y2="94.5558" gradientUnits="userSpaceOnUse">
<stop stop-color="#DAC400"/>
<stop offset="1" stop-color="#A36200"/>
</linearGradient>
<linearGradient id="paint1_linear_1_584" x1="48.3623" y1="33.1587" x2="94.8304" y2="43.3404" gradientUnits="userSpaceOnUse">
<stop stop-color="#915D3F"/>
<stop offset="1" stop-color="#633F91"/>
</linearGradient>
<linearGradient id="paint2_linear_1_584" x1="41.0888" y1="29.522" x2="48.362" y2="50.7354" gradientUnits="userSpaceOnUse">
<stop stop-color="#DAC400"/>
<stop offset="1" stop-color="#A36200"/>
</linearGradient>
</defs>
</svg>
