<svg width="59" height="56" viewBox="0 0 59 56" fill="none" xmlns="http://www.w3.org/2000/svg">
<path fill-rule="evenodd" clip-rule="evenodd" d="M16.8041 23.3523C10.8917 23.3523 8.32283 28.7059 8.32283 32.245C8.32283 34.8901 8.70632 34.1117 7.24219 37.3383C5.45426 41.9364 12.6441 43.8158 16.8041 43.8158C20.9628 43.8158 28.1527 41.9364 26.366 37.3383C24.9019 34.1117 25.2854 34.8901 25.2854 32.245C25.2854 28.7059 22.7152 23.3523 16.8041 23.3523Z" stroke="white" stroke-width="1.5" stroke-linecap="round" stroke-linejoin="round"/>
<path d="M19.8836 47.3496C18.1579 49.2772 15.4659 49.3001 13.7236 47.3496" stroke="white" stroke-width="1.5" stroke-linecap="round" stroke-linejoin="round"/>
<g filter="url(#filter0_d_1_631)">
<circle cx="30.8091" cy="24" r="12" fill="#6F4CA4"/>
</g>
<path d="M29.2751 26.0701C30.0431 25.4061 30.6471 24.8621 31.0871 24.4381C31.5351 24.0061 31.9071 23.5581 32.2031 23.0941C32.4991 22.6301 32.6471 22.1661 32.6471 21.7021C32.6471 21.2221 32.5311 20.8461 32.2991 20.5741C32.0751 20.3021 31.7191 20.1661 31.2311 20.1661C30.7591 20.1661 30.3911 20.3181 30.1271 20.6221C29.8711 20.9181 29.7351 21.3181 29.7191 21.8221H28.3991C28.4231 20.9101 28.6951 20.2141 29.2151 19.7341C29.7431 19.2461 30.4111 19.0021 31.2191 19.0021C32.0911 19.0021 32.7711 19.2421 33.2591 19.7221C33.7551 20.2021 34.0031 20.8421 34.0031 21.6421C34.0031 22.2181 33.8551 22.7741 33.5591 23.3101C33.2711 23.8381 32.9231 24.3141 32.5151 24.7381C32.1151 25.1541 31.6031 25.6381 30.9791 26.1901L30.4391 26.6701H34.2431V27.8101H28.4111V26.8141L29.2751 26.0701Z" fill="#FFFEFE"/>
<defs>
<filter id="filter0_d_1_631" x="2.80908" y="0" width="56" height="56" filterUnits="userSpaceOnUse" color-interpolation-filters="sRGB">
<feFlood flood-opacity="0" result="BackgroundImageFix"/>
<feColorMatrix in="SourceAlpha" type="matrix" values="0 0 0 0 0 0 0 0 0 0 0 0 0 0 0 0 0 0 127 0" result="hardAlpha"/>
<feOffset dy="4"/>
<feGaussianBlur stdDeviation="8"/>
<feComposite in2="hardAlpha" operator="out"/>
<feColorMatrix type="matrix" values="0 0 0 0 0.435294 0 0 0 0 0.298039 0 0 0 0 0.643137 0 0 0 0.26 0"/>
<feBlend mode="normal" in2="BackgroundImageFix" result="effect1_dropShadow_1_631"/>
<feBlend mode="normal" in="SourceGraphic" in2="effect1_dropShadow_1_631" result="shape"/>
</filter>
</defs>
</svg>
